# Blender 4.2.0
# www.blender.org
mtllib grass.mtl
o Cube
v 0.067102 0.873486 -0.044395
v 0.115740 0.027886 -0.056510
v 0.273243 0.099036 -0.025431
v 0.279423 0.567277 -0.021340
v 0.187288 0.594800 -0.037052
v -0.102053 1.026914 -0.028064
v 0.340454 0.233255 -0.005639
v 0.239776 0.623039 -0.020203
v 0.139834 0.225559 -0.056438
v 0.330972 0.414373 -0.019002
v 0.204216 0.119773 -0.031289
v 0.284980 0.139190 -0.012829
v 0.277845 0.576453 -0.012617
v 0.193463 0.590825 -0.029043
v 0.335021 0.255944 -0.000882
v 0.244983 0.629612 -0.010075
v 0.165552 0.476733 -0.044204
v 0.182680 0.258238 -0.036726
v 0.324177 0.429758 -0.014091
v -0.074036 0.046864 -0.051217
v -0.242026 0.253785 -0.033912
v -0.193482 0.111890 -0.041934
v -0.038275 1.220693 -0.027313
v -0.167278 0.842726 -0.026580
v 0.126631 0.537267 -0.054696
v -0.224176 0.640251 -0.025633
v -0.249052 0.435015 -0.028399
v -0.086096 0.073892 -0.040169
v 0.057198 0.827744 -0.025768
v 0.031436 0.090796 -0.038819
v -0.235670 0.263490 -0.028130
v -0.187816 0.129352 -0.034135
v -0.025965 1.030781 -0.023817
v -0.166848 0.829542 -0.018516
v -0.099054 0.975604 -0.022562
v 0.088681 0.548052 -0.030426
v 0.087919 0.249064 -0.024821
v -0.222306 0.637409 -0.017489
v -0.244834 0.438911 -0.022479
v 0.221170 0.054834 -0.066046
v 0.298071 0.092800 -0.036912
v 0.280206 0.544352 -0.031777
v 0.194618 0.562420 -0.046937
v 0.344135 0.224129 -0.014549
v 0.234597 0.597500 -0.032186
v 0.173984 0.444892 -0.062763
v 0.192179 0.218724 -0.061697
v 0.332657 0.396577 -0.024633
v -0.092677 0.061813 -0.061751
v 0.051973 0.827002 -0.070993
v 0.023795 0.074734 -0.077862
v -0.239436 0.256309 -0.040477
v -0.194959 0.117018 -0.050232
v -0.027736 1.031166 -0.045641
v -0.165625 0.828526 -0.035642
v -0.098994 0.975299 -0.037173
v 0.083203 0.530259 -0.087154
v 0.075167 0.212210 -0.104174
v -0.221579 0.635015 -0.034603
v -0.245855 0.435049 -0.035115
vn 0.7818 0.3842 -0.4911
vn 0.5057 0.4380 -0.7433
vn 0.6947 0.4806 -0.5352
vn 0.7867 0.4567 -0.4153
vn -0.2262 -0.0686 0.9717
vn 0.0775 -0.1735 0.9818
vn 0.3550 0.0109 0.9348
vn -0.2096 -0.0070 0.9778
vn -0.2744 0.0004 0.9616
vn -0.2905 -0.0058 0.9569
vn -0.2800 -0.0036 0.9600
vn -0.1689 -0.2461 0.9544
vn 0.1547 -0.4727 0.8675
vn 0.7057 -0.1497 0.6925
vn 0.9754 0.2144 0.0513
vn 0.9511 0.2857 0.1173
vn -0.3620 0.0060 0.9321
vn -0.3419 0.0092 0.9397
vn -0.3660 0.0110 0.9305
vn -0.5844 0.7699 0.2564
vn -0.9380 0.3441 0.0426
vn -0.9768 0.2129 -0.0233
vn -0.9077 0.1650 0.3858
vn -0.4692 0.1350 0.8727
vn -0.1007 0.0517 0.9936
vn -0.1673 0.0708 0.9834
vn 0.1482 0.0494 0.9877
vn 0.1048 0.0568 0.9929
vn 0.3827 -0.0564 0.9222
vn 0.5735 0.0392 0.8182
vn 0.3324 0.0184 0.9429
vn 0.2480 -0.0280 0.9684
vn 0.4126 0.0887 0.9066
vn 0.3357 0.0355 0.9413
vn -0.0323 -0.3234 0.9457
vn 0.1903 -0.1699 0.9669
vn 0.0954 -0.1484 0.9843
vn -0.0531 -0.2316 0.9714
vn -0.9920 0.0248 0.1240
vn -0.5443 -0.1736 0.8207
vn -0.3663 -0.0673 0.9281
vn -0.5055 0.0191 0.8626
vn -0.2549 -0.3542 0.8997
vn -0.2240 -0.1865 0.9566
vn 0.0184 -0.0184 0.9997
vn 0.5462 0.1800 -0.8181
vn 0.2530 0.2775 -0.9268
vn 0.0645 0.0212 -0.9977
vn 0.0708 0.0183 -0.9973
vn 0.0664 0.0299 -0.9973
vn 0.1416 0.1456 -0.9792
vn 0.8450 0.0908 -0.5270
vn 0.2644 0.0335 -0.9638
vn 0.2182 -0.7871 0.5769
vn 0.3635 -0.5226 0.7712
vn 0.9718 0.0725 0.2245
vn 0.0155 0.1325 -0.9911
vn -0.1182 0.0015 -0.9930
vn 0.4321 -0.3183 0.8438
vn 0.0676 0.2903 -0.9546
vn -0.0947 0.0109 -0.9954
vn -0.5295 0.1447 -0.8359
vn -0.8982 0.1608 -0.4090
vn -0.2739 0.1111 -0.9553
vn -0.0282 0.1309 -0.9910
vn 0.0200 0.1205 -0.9925
vn -0.3275 0.1097 -0.9385
vn 0.5018 -0.0517 -0.8634
vn 0.1853 -0.0330 -0.9821
vn 0.2616 0.0547 -0.9636
vn 0.6211 0.0783 -0.7798
vn 0.2453 0.0919 -0.9651
vn 0.3794 0.1645 -0.9105
vn -0.1439 -0.6170 -0.7737
vn -0.3291 -0.4893 -0.8076
vn 0.0203 -0.2691 -0.9629
vn 0.2649 -0.2686 -0.9261
vn -0.9192 0.0467 -0.3910
vn -0.9338 -0.1407 -0.3290
vn -0.9360 -0.1811 -0.3019
vn -0.6740 -0.6622 -0.3275
vn -0.8036 -0.5198 -0.2899
vn -0.1689 0.0254 -0.9853
vt 0.000000 0.000000
vt 0.375000 0.887935
vt 0.483349 0.851905
vt 0.465841 0.864593
vt 0.510026 0.915380
vt 0.437500 0.963629
vt 0.518060 0.906177
s 1
f 4/1/1 8/1/2 16/1/3 13/1/4
f 11/2/5 12/1/6 15/1/7 19/1/8 13/1/8 16/1/8 14/1/9 17/3/10 18/4/11
f 2/1/12 3/1/13 12/1/6 11/1/5
f 7/1/14 10/1/15 19/1/16 15/1/7
f 25/3/17 9/4/18 18/4/11 17/3/10
f 3/1/13 7/1/14 15/1/7 12/1/6
f 5/1/19 25/1/17 17/1/10 14/1/9
f 9/4/18 2/2/12 11/2/5 18/4/11
f 8/1/20 5/1/20 14/1/20 16/1/20
f 10/1/15 4/1/1 13/1/4 19/1/16
f 24/1/21 26/1/22 38/1/23 34/1/24
f 6/1/25 35/1/26 33/1/27 23/1/28
f 9/4/29 25/3/30 36/3/31 37/4/32
f 25/1/30 1/1/33 29/1/34 36/1/31
f 20/1/35 2/1/36 30/1/37 28/1/38
f 2/2/36 9/4/29 37/4/32 30/2/37
f 24/1/21 34/1/24 35/1/26 6/1/25
f 27/5/39 21/6/40 31/6/41 39/5/42
f 22/1/43 20/1/35 28/1/38 32/1/44
f 26/7/22 27/5/39 39/5/42 38/7/23
f 1/1/33 23/1/28 33/1/27 29/1/34
f 21/1/40 22/1/43 32/1/44 31/1/41
f 28/1/38 30/2/37 37/4/32 36/1/31 29/1/34 33/1/27 35/1/26 34/1/24 38/7/45 39/5/42 31/1/41 32/1/44
f 4/1/1 42/1/46 45/1/47 8/1/2
f 40/2/48 47/4/49 46/3/50 43/1/51 45/1/47 42/1/46 48/1/52 44/1/53 41/1/53
f 2/1/12 40/1/54 41/1/55 3/1/13
f 7/1/14 44/1/56 48/1/52 10/1/15
f 25/3/57 46/3/50 47/4/49 9/4/58
f 3/1/13 41/1/55 44/1/59 7/1/14
f 5/1/60 43/1/51 46/1/50 25/1/57
f 9/4/58 47/4/49 40/2/48 2/2/61
f 8/1/2 45/1/47 43/1/51 5/1/60
f 10/1/15 48/1/52 42/1/46 4/1/1
f 24/1/21 55/1/62 59/1/63 26/1/22
f 6/1/64 23/1/65 54/1/66 56/1/67
f 9/4/68 58/4/69 57/3/70 25/3/71
f 25/1/71 57/1/70 50/1/72 1/1/73
f 20/1/74 49/1/75 51/1/76 2/1/77
f 2/2/77 51/2/76 58/4/69 9/4/68
f 24/1/21 6/1/64 56/1/67 55/1/62
f 27/5/39 60/5/78 52/6/79 21/6/80
f 22/1/81 53/1/82 49/1/75 20/1/74
f 26/7/22 59/7/63 60/5/78 27/5/39
f 1/1/73 50/1/72 54/1/66 23/1/65
f 21/1/80 52/1/79 53/1/82 22/1/81
f 49/1/75 53/1/83 52/1/83 60/5/83 59/7/83 55/1/62 56/1/67 54/1/66 50/1/72 57/1/70 58/4/69 51/2/76
